HIERARCHY
ROOT hip
{
	OFFSET 0.000000 0.000000 0.000000 
	CHANNELS 6 Xposition Yposition Zposition Xrotation Zrotation Yrotation
	JOINT abdomen
	{
		OFFSET 0.000000 3.402643 0.000000 
		CHANNELS 3 Xrotation Zrotation Yrotation
		JOINT chest
		{
			OFFSET 0.000000 8.438565 -0.680529 
			CHANNELS 3 Xrotation Zrotation Yrotation
			JOINT neck
			{
				OFFSET 0.000000 10.207942 -0.272212 
				CHANNELS 3 Xrotation Zrotation Yrotation
				JOINT head
				{
					OFFSET 0.000000 3.130431 0.000000 
					CHANNELS 3 Xrotation Zrotation Yrotation
					End Site
					{
						OFFSET 0.000000 3.130435 0.000000 
					}
				}
			}
			JOINT lCollar
			{
				OFFSET 3.470700 6.669187 -0.816635 
				CHANNELS 3 Yrotation Zrotation Xrotation
				JOINT lShldr
				{
					OFFSET 3.198488 0.000000 0.000000 
					CHANNELS 3 Zrotation Yrotation Xrotation
					JOINT lForeArm
					{
						OFFSET 10.139888 0.000000 0.000000 
						CHANNELS 3 Yrotation Zrotation Xrotation
						JOINT lHand
						{
							OFFSET 8.370511 0.000000 0.000000 
							CHANNELS 3 Zrotation Yrotation Xrotation
							End Site
							{
								OFFSET 4.083176 0.000000 0.000000 
							}
						}
					}
				}
			}
			JOINT rCollar
			{
				OFFSET -3.470700 6.669187 -0.816635 
				CHANNELS 3 Yrotation Zrotation Xrotation
				JOINT rShldr
				{
					OFFSET -3.198488 0.000000 0.000000 
					CHANNELS 3 Zrotation Yrotation Xrotation
					JOINT rForeArm
					{
						OFFSET -10.139888 0.000000 0.000000 
						CHANNELS 3 Yrotation Zrotation Xrotation
						JOINT rHand
						{
							OFFSET -8.370511 0.000000 0.000000 
							CHANNELS 3 Zrotation Yrotation Xrotation
							End Site
							{
								OFFSET -4.083176 0.000000 0.000000 
							}
						}
					}
				}
			}
		}
	}
	JOINT lThigh
	{
		OFFSET 5.308129 -1.633274 1.361059 
		CHANNELS 3 Xrotation Zrotation Yrotation
		JOINT lShin
		{
			OFFSET -2.041588 -20.007561 0.000000 
			CHANNELS 3 Xrotation Zrotation Yrotation
			JOINT lFoot
			{
				OFFSET 0.000000 -19.190928 -1.224953 
				CHANNELS 3 Xrotation Yrotation Zrotation
				End Site
				{
					OFFSET 0.000000 -2.449906 4.627600 
				}
			}
		}
	}
	JOINT rThigh
	{
		OFFSET -5.308129 -1.633274 1.361059 
		CHANNELS 3 Xrotation Zrotation Yrotation
		JOINT rShin
		{
			OFFSET 2.041588 -20.007561 0.000000 
			CHANNELS 3 Xrotation Zrotation Yrotation
			JOINT rFoot
			{
				OFFSET 0.000000 -19.190928 -1.224953 
				CHANNELS 3 Xrotation Yrotation Zrotation
				End Site
				{
					OFFSET 0.000000 -2.449906 4.627600 
				}
			}
		}
	}
}
MOTION
Frames: 18
Frame Time: 0.011111
25.168390 48.184135 -119.371933 6.953354 2.985458 -4.869380 17.161461 -4.438861 1.158577 -24.305420 2.168497 0.714242 -9.469159 0.304957 0.738958 22.562477 4.052550 2.648287 -7.198545 -2.255300 -0.324897 -63.885826 -41.701412 35.909344 -59.059204 9.188068 11.979436 8.524705 12.647240 -30.647837 5.113256 1.510366 0.237230 75.194672 1.480379 6.372735 46.548199 -6.832899 6.795862 -8.533279 -12.636986 34.222801 -3.907495 -1.424016 3.770258 29.111353 -5.389629 -4.769999 -21.734152 -11.857238 -7.590456 -34.390003 -4.579355 0.103055 50.629761 3.703299 7.260601 -25.853983 7.635203 5.906538 
25.188524 48.176212 -118.811829 6.821886 2.860478 -4.339306 17.240940 -3.982631 0.641157 -24.178455 2.127985 0.545135 -9.562020 0.695446 0.815008 22.833109 3.521618 2.771405 -7.198545 -2.255300 -0.324897 -63.492668 -42.591656 36.522068 -59.824322 9.253085 12.320823 8.524705 12.647240 -30.550182 5.113256 1.510366 0.237230 75.227768 1.444498 5.620240 46.455303 -6.807495 6.759980 -8.533279 -12.636986 33.422024 -2.620970 -1.414179 3.430220 28.080910 -5.438871 -4.621009 -21.068817 -12.478626 -7.763935 -35.207718 -4.540506 0.277586 49.421677 3.828137 7.127213 -25.425055 7.649906 5.885104 
25.200409 48.160698 -118.249718 6.720737 3.018914 -3.754255 17.346146 -3.875781 -0.057633 -24.237482 2.341851 0.335398 -9.530366 0.394750 0.914246 23.056795 3.730338 2.987169 -7.198545 -2.255300 -0.324897 -63.267952 -43.345890 36.963657 -60.473751 9.302457 12.604893 8.524705 12.647240 -30.364637 5.113256 1.510366 0.237230 75.073189 1.134189 5.635658 46.775665 -6.896512 6.886444 -8.533279 -12.636986 34.281395 -1.308405 -1.669551 3.249957 27.123707 -5.511678 -4.483624 -20.646519 -13.072466 -7.950511 -36.148712 -4.833440 0.465212 48.182831 3.947773 7.006130 -24.809843 7.529931 5.802700 
25.207008 48.162682 -117.686630 6.619013 3.338499 -3.269842 17.403418 -4.123128 -0.507434 -24.267063 2.482749 0.228439 -9.317016 0.084986 0.918474 22.793312 4.082428 2.986549 -7.198545 -2.255300 -0.324897 -62.839741 -44.113117 37.861668 -61.168053 9.354009 12.923200 8.524705 12.647240 -29.681042 5.113256 1.510366 0.237230 75.152527 0.837988 5.029343 46.961594 -6.946095 6.960196 -8.533279 -12.636986 34.672020 -0.076792 -2.044134 3.288608 26.311003 -5.540559 -4.387934 -20.725126 -13.197715 -8.027743 -37.085949 -5.233580 0.802805 46.776470 4.074709 6.852374 -23.831158 7.253899 5.633087 
25.200737 48.169609 -117.127495 6.543610 3.348916 -2.888775 17.433405 -4.068210 -0.748041 -24.110710 2.497941 0.165898 -9.057769 0.206963 0.780390 22.118256 3.882402 2.660279 -7.198545 -2.255300 -0.324897 -62.211296 -44.883999 38.939785 -62.103828 9.397381 13.346716 8.524705 12.647240 -28.890026 5.113256 1.510366 0.237230 75.419090 0.629665 5.472238 46.879189 -6.926494 6.932413 -8.533279 -12.636986 36.341946 1.178327 -2.053443 3.295570 24.940475 -5.607710 -4.190534 -19.950712 -13.347465 -7.961266 -37.961712 -5.243692 1.156387 45.536301 4.189372 6.705539 -22.920288 6.805730 5.401657 
25.186544 48.122742 -116.575600 6.756021 2.396989 -2.469528 17.157095 -2.717657 -0.868965 -23.963989 2.410974 0.010477 -9.073746 0.454183 0.840424 22.210680 3.629064 2.792079 -7.198545 -2.255300 -0.324897 -61.949215 -45.415665 39.229263 -63.138863 9.436551 13.820126 8.524705 12.647240 -28.782604 5.113256 1.510366 0.237230 75.264221 0.417483 6.131498 46.641968 -6.864854 6.840063 -8.533279 -12.636986 37.513813 1.683813 -0.953666 3.102621 23.756790 -5.667055 -4.018018 -17.454504 -14.815641 -8.070641 -38.772198 -4.335532 1.075748 44.127518 4.316258 6.537315 -22.322851 6.257509 5.130746 
25.229782 47.967609 -115.868279 6.138547 3.405993 -1.990893 17.319330 -3.585871 -1.681687 -23.592802 2.609604 -0.119654 -8.781546 0.184590 0.853232 21.680592 3.541342 2.734594 -7.198545 -2.255300 -0.324897 -62.002605 -45.969425 39.039707 -63.907124 9.453450 14.175694 8.524705 12.647240 -29.300182 5.113256 1.510366 0.237230 75.078194 0.221763 6.029719 46.858917 -6.922942 6.922376 -8.533279 -12.636986 37.699368 3.809455 -2.113527 2.596387 22.438902 -5.719734 -3.831000 -13.587753 -17.051136 -7.956965 -39.210255 -5.673186 1.253959 42.944294 4.413730 6.404263 -21.453157 6.657540 5.272976 
25.212948 48.009525 -115.289345 5.996356 3.943844 -1.745626 17.304226 -4.230259 -2.005160 -23.387720 2.794197 -0.147211 -8.771834 0.261598 0.841004 21.763733 3.733137 2.772774 -7.198545 -2.255300 -0.324897 -61.908268 -46.772369 39.010658 -64.502289 9.453669 14.449412 8.524705 12.647240 -29.729870 5.113256 1.510366 0.237230 75.264908 0.123054 5.448788 47.107021 -6.988122 7.014182 -8.533279 -12.636986 37.591946 5.985648 -2.792559 3.699467 21.126669 -5.763723 -3.652343 -17.282673 -15.172728 -8.189023 -39.952965 -6.151801 1.791753 41.502705 4.531089 6.254076 -20.327414 6.504105 5.165238 
25.185225 47.942524 -114.774086 6.096946 4.156466 -1.402278 17.319723 -4.478958 -2.349581 -23.407560 3.015720 -0.225767 -8.820013 0.420003 0.837856 21.831614 3.719090 2.787458 -7.198545 -2.255300 -0.324897 -61.630253 -47.451836 39.193489 -65.078926 9.454972 14.720664 8.524705 12.647240 -29.720102 5.113256 1.510366 0.237230 75.424721 -0.096192 5.269312 46.755394 -6.892925 6.876428 -8.533279 -12.636986 37.386868 7.571865 -3.053415 3.947523 19.579454 -5.820798 -3.452913 -17.367115 -14.895656 -8.090364 -41.126015 -6.239457 2.632161 40.169273 4.632053 6.096300 -19.388956 6.043732 4.918205 
25.193146 47.915787 -114.204391 6.039162 4.081288 -0.893863 17.370764 -4.205290 -2.625692 -23.446642 3.001682 -0.324980 -8.773371 0.303900 0.794983 21.841400 3.756855 2.696279 -7.198545 -2.255300 -0.324897 -61.248280 -47.968502 39.883854 -65.727539 9.442901 15.020887 8.524705 12.647240 -29.143932 5.113256 1.510366 0.237230 75.659752 -0.474609 5.097888 46.445377 -6.809620 6.768264 -8.533279 -12.636986 37.562645 8.741020 -2.945371 4.292196 18.819395 -5.840489 -3.349010 -16.818546 -15.531003 -8.202589 -41.666779 -6.367016 2.949762 38.527790 4.755319 5.887891 -18.638899 5.615982 4.757813 
25.199417 47.884762 -113.607292 6.007191 3.606050 -0.582552 17.229897 -3.606764 -2.386047 -23.426868 2.836332 -0.307268 -8.643134 0.343847 0.616491 21.865349 3.708085 2.342648 -7.198545 -2.255300 -0.324897 -61.076168 -48.513248 40.724712 -66.301224 9.426050 15.296182 8.524705 12.647240 -28.665417 5.113256 1.510366 0.237230 76.064018 -0.874919 4.316528 46.651676 -6.863315 6.841533 -8.533279 -12.636986 36.986473 9.907682 -2.459201 4.983621 17.755747 -5.869413 -3.198395 -16.485834 -15.773891 -8.214736 -41.968441 -6.073904 2.850657 37.011501 4.866938 5.722425 -18.010490 5.394096 4.642199 
25.185555 47.767258 -113.034630 6.035038 3.324661 -0.424473 17.145714 -3.320182 -2.197970 -23.583311 2.836354 -0.295486 -8.410400 0.625470 0.537728 21.880001 3.588589 2.213442 -7.198545 -2.255300 -0.324897 -61.109573 -49.005810 41.236267 -66.619469 9.413200 15.446368 8.524705 12.647240 -28.518934 5.113256 1.510366 0.237230 76.251648 -1.267972 3.247396 47.085655 -6.978603 7.006742 -8.533279 -12.636986 34.349754 11.228562 -2.167113 5.364494 16.414982 -5.900278 -3.002548 -15.482217 -16.176083 -8.148129 -42.549175 -5.761013 3.141061 35.603024 4.964738 5.551106 -17.693930 5.287523 4.592789 
25.181925 47.686718 -112.431587 6.048425 3.815262 -0.047350 17.046326 -3.798261 -2.634743 -23.622761 3.067188 -0.376293 -8.106441 0.645678 0.566109 21.557936 3.584643 2.274879 -7.198545 -2.255300 -0.324897 -60.957951 -49.404213 41.842098 -67.088074 9.395378 15.671638 8.524705 12.647240 -27.962290 5.113256 1.510366 0.237230 76.228539 -1.712109 4.214874 46.703850 -6.881797 6.867365 -8.533279 -12.636986 37.601707 12.818948 -2.674493 4.964003 14.973257 -5.937106 -2.808826 -15.390054 -16.133694 -8.095671 -43.296455 -6.376352 3.440332 34.252266 5.052456 5.390028 -17.359394 5.550932 4.675256 
25.195126 47.670876 -111.795219 6.062904 4.405807 0.497068 16.827888 -4.230859 -3.248503 -23.339428 3.278554 -0.496627 -7.961006 0.532914 0.548410 21.144161 3.487296 2.176805 -7.198545 -2.255300 -0.324897 -60.725506 -49.762100 42.244026 -67.807663 9.350997 16.014994 8.524705 12.647240 -27.386120 5.113256 1.510366 0.237230 76.091248 -2.001071 4.735739 46.682724 -6.871488 6.850307 -8.533279 -12.636986 38.412258 14.603016 -3.298640 4.654242 13.031936 -5.966695 -2.538499 -15.436931 -15.673954 -7.950344 -43.972431 -7.343131 3.252371 33.099766 5.120802 5.229804 -16.807455 6.185153 4.848392 
25.205687 47.651073 -111.185913 6.005244 4.559818 0.901434 16.792267 -4.171217 -3.725659 -23.183014 3.372336 -0.627973 -7.987712 0.542867 0.616923 20.978193 3.430970 2.311134 -7.198545 -2.255300 -0.324897 -60.495190 -50.080509 42.253002 -68.443230 9.306245 16.319628 8.524705 12.647240 -27.005264 5.113256 1.510366 0.237230 75.954910 -2.299739 4.992825 46.931610 -6.944139 6.948657 -8.533279 -12.636986 38.080223 16.606813 -3.514169 4.772944 10.528892 -6.003355 -2.198348 -13.597821 -15.467103 -7.456829 -44.546047 -7.743561 3.316809 32.132149 5.189208 5.123906 -16.770344 6.523565 4.957099 
25.198429 47.568554 -110.589806 5.829601 4.691145 1.263735 17.041365 -4.176994 -4.137220 -23.134306 3.544579 -0.738892 -8.062924 0.292699 0.723558 20.774336 3.793721 2.542995 -7.198545 -2.255300 -0.324897 -60.308884 -50.484669 42.362782 -68.917732 9.264407 16.549932 8.524705 12.647240 -26.663465 5.113256 1.510366 0.237230 75.933235 -2.567016 5.051430 47.210621 -7.017468 7.060588 -8.533279 -12.636986 38.031399 19.241013 -3.640290 3.975941 7.105572 -6.023670 -1.694372 -11.522512 -14.664032 -6.743494 -44.961395 -7.938476 3.921784 31.155485 5.247807 4.984650 -17.202387 6.511954 4.984609 
25.195126 47.482735 -109.980171 5.751302 4.873341 2.001745 17.180828 -4.201992 -4.647171 -22.997501 3.707545 -0.872763 -8.145700 -0.081501 0.651503 20.368921 4.091191 2.367276 -7.198545 -2.255300 -0.324897 -60.246803 -50.975334 42.591217 -69.308090 9.227851 16.740871 8.524705 12.647240 -26.409557 5.113256 1.510366 0.237230 76.007278 -2.618329 4.707411 47.241707 -7.025326 7.069569 -8.533279 -12.636986 37.757954 23.669437 -3.788188 2.551752 -0.118231 -5.969803 -0.671685 -9.278452 -12.459473 -5.711316 -45.354755 -8.378579 4.758986 30.207050 5.301743 4.865550 -17.874338 6.265991 4.953363 
25.207668 47.461617 -109.387047 5.904634 4.795496 2.812566 17.058764 -3.850053 -4.894384 -22.997311 3.606585 -0.967017 -8.153817 -0.237604 0.456961 20.100609 4.161234 1.936356 -7.198545 -2.255300 -0.324897 -60.296417 -51.261440 43.106808 -69.710068 9.190083 16.942287 8.524705 12.647240 -26.155651 5.113256 1.510366 0.237230 76.182816 -2.796668 4.009078 47.272785 -7.033167 7.078560 -8.533279 -12.636986 36.869286 24.037374 -3.445884 1.663893 -0.118214 -5.969803 -0.671685 -9.778419 -12.304182 -5.766723 -45.746792 -8.885959 4.592886 29.236769 5.356010 4.753038 -17.851383 6.717121 5.097600 
